<?xml version="1.0" encoding="utf-8"?>
<!-- Generator: Adobe Illustrator 25.2.0, SVG Export Plug-In . SVG Version: 6.00 Build 0)  -->
<svg version="1.1" id="Layer_1" xmlns="http://www.w3.org/2000/svg" xmlns:xlink="http://www.w3.org/1999/xlink" x="0px" y="0px"
	 viewBox="0 0 2000 2000" style="enable-background:new 0 0 2000 2000;" xml:space="preserve">
<style type="text/css">
	.st0{fill:url(#SVGID_1_);}
	.st1{fill:url(#SVGID_2_);}
</style>
<g>
	<g>
		<path d="M403.2,1412.4v-140.8h44.9c1.2,0,3.5,0,7,0.1c3.5,0.1,6.9,0.3,10.1,0.7c11.1,1.4,20.6,5.4,28.3,11.9
			c7.7,6.5,13.6,14.7,17.5,24.8c4,10,6,21,6,32.9c0,11.9-2,22.9-6,32.9c-4,10-9.8,18.3-17.5,24.8c-7.7,6.5-17.2,10.4-28.3,11.9
			c-3.2,0.4-6.5,0.6-10.1,0.7c-3.5,0.1-5.9,0.1-7,0.1H403.2z M427.2,1390.2h20.9c2,0,4.4-0.1,7.5-0.2c3-0.1,5.7-0.4,8.1-0.9
			c6.6-1.2,12.1-4.2,16.2-8.9c4.2-4.7,7.2-10.4,9.2-17.1c2-6.7,3-13.8,3-21.1c0-7.6-1-14.8-3-21.5c-2-6.7-5.1-12.4-9.3-16.9
			c-4.2-4.6-9.6-7.5-16.1-8.7c-2.3-0.5-5-0.8-8.1-0.9c-3-0.1-5.5-0.1-7.5-0.1h-20.9V1390.2z"/>
		<path d="M526.5,1412.4l44.4-140.8h34.5l44.4,140.8h-24.2l-40.3-126.3h5.3l-39.8,126.3H526.5z M551.2,1381.9v-22h73.9v22H551.2z"/>
		<path d="M683.4,1412.4l-41.2-140.8H667l28.1,101.7l28-101.5l24.7-0.2l28.1,101.7l28-101.7h24.7l-41.1,140.8h-23.3l-28.8-100.1
			l-28.6,100.1H683.4z"/>
		<path d="M844.4,1412.4v-140.8h23.9l65.3,99.2v-99.2h23.9v140.8h-23.9l-65.3-99.2v99.2H844.4z"/>
		<path d="M984.8,1412.4v-140.8h84.8v23.6h-61.2v35.1h49.5v23.5h-49.5v58.7H984.8z"/>
		<path d="M1146.7,1415.3c-14.1,0-26.1-3.1-36.2-9.2c-10-6.2-17.7-14.7-23.1-25.8c-5.4-11-8.1-23.8-8.1-38.3
			c0-14.5,2.7-27.3,8.1-38.3c5.4-11,13.1-19.6,23.1-25.8c10-6.2,22.1-9.2,36.2-9.2c14.1,0,26.1,3.1,36.2,9.2s17.8,14.7,23.2,25.8
			c5.4,11,8.1,23.8,8.1,38.3c0,14.5-2.7,27.3-8.1,38.3c-5.4,11-13.1,19.6-23.2,25.8S1160.8,1415.3,1146.7,1415.3z M1146.7,1393.1
			c9.4,0.1,17.3-2,23.6-6.3c6.3-4.2,11-10.2,14.2-17.9c3.2-7.7,4.7-16.7,4.7-27c0-10.3-1.6-19.2-4.7-26.8
			c-3.2-7.6-7.9-13.5-14.2-17.7c-6.3-4.2-14.2-6.4-23.6-6.5c-9.5-0.1-17.3,2-23.6,6.3c-6.3,4.2-11,10.2-14.1,17.9
			c-3.2,7.7-4.7,16.7-4.7,27c0,10.3,1.6,19.2,4.7,26.8c3.1,7.6,7.8,13.5,14.1,17.7C1129.4,1390.8,1137.2,1393,1146.7,1393.1z"/>
		<path d="M1233.7,1412.4v-140.8h58.2c1.4,0,3.1,0,5.3,0.1c2.2,0.1,4.1,0.3,6,0.6c8.1,1.2,14.9,3.9,20.2,8.1
			c5.3,4.2,9.3,9.4,11.8,15.8c2.6,6.4,3.9,13.4,3.9,21.2c0,11.5-2.9,21.3-8.7,29.6c-5.8,8.2-14.7,13.3-26.7,15.3l-10.1,0.9h-36.3
			v49.2H1233.7z M1257.2,1341.2h33.6c1.3,0,2.8-0.1,4.4-0.2c1.6-0.1,3.1-0.4,4.5-0.8c3.9-1,7-2.7,9.2-5.2c2.2-2.5,3.8-5.3,4.8-8.4
			c0.9-3.1,1.4-6.2,1.4-9.2c0-3-0.5-6.1-1.4-9.2c-0.9-3.2-2.5-6-4.8-8.5c-2.2-2.5-5.3-4.2-9.2-5.2c-1.4-0.4-2.9-0.6-4.5-0.7
			c-1.6-0.1-3.1-0.1-4.4-0.1h-33.6V1341.2z M1314.5,1412.4l-27.8-57.3l24-5.3l30.5,62.6H1314.5z"/>
		<path d="M1420.8,1415.3c-9.1,0-17.7-1.6-25.7-4.8c-8-3.2-15-8-21-14.2c-6-6.3-10.7-13.9-14.1-23c-3.4-9.1-5.1-19.5-5.1-31.2
			c0-15.4,2.9-28.5,8.6-39.4c5.7-10.9,13.6-19.3,23.6-25.1c10-5.8,21.2-8.7,33.7-8.7c17.3,0,31.1,4,41.2,12.1
			c10.1,8,17,19.3,20.6,33.9l-24,3.8c-2.7-8.3-7-15-13.1-20c-6.1-5-13.8-7.5-23.2-7.5c-9.5-0.1-17.3,1.9-23.6,6.2
			c-6.3,4.2-11,10.2-14.1,17.9c-3.2,7.7-4.7,16.7-4.7,27c0,10.3,1.6,19.2,4.7,26.8c3.1,7.6,7.8,13.5,14.1,17.7
			c6.3,4.2,14.2,6.4,23.6,6.5c7.1,0.1,13.3-1.2,18.7-3.9c5.3-2.6,9.7-6.6,13.1-12c3.4-5.4,5.7-12.1,6.8-20.2H1436v-18.5h49.9
			c0.1,1,0.2,2.6,0.3,4.6c0.1,2,0.1,3.2,0.1,3.6c0,13.3-2.6,25.1-7.9,35.4c-5.2,10.3-12.8,18.4-22.5,24.3
			C1446.1,1412.4,1434.4,1415.3,1420.8,1415.3z"/>
		<path d="M1505.8,1412.4v-140.8h90.9v22.1h-67.4v34.7h55.6v22.1h-55.6v39.8h67.4v22.1H1505.8z"/>
	</g>
	<g>
		<path d="M971.1,948.6v-82.2c0-85.4-69.2-154.7-154.7-154.7H637l81.7,89.1c0,0,163.3-26.8,163.3,79.2s-77.9,111.6-77.9,111.6v83.5
			h89.8v-49.2l0,0C936.5,1025.9,971.1,991.3,971.1,948.6z"/>
		<path d="M1212.1,711.8c-85.4,0-154.7,69.2-154.7,154.7v82.2c0,42.7,34.6,77.3,77.3,77.3h0v49.2h89.8v-83.5
			c0,0-77.9-5.6-77.9-111.6s163.3-79.2,163.3-79.2l81.7-89.1H1212.1z"/>
		<linearGradient id="SVGID_1_" gradientUnits="userSpaceOnUse" x1="1068.8987" y1="495.5593" x2="997.5145" y2="1188.4059">
			<stop  offset="0.3134" style="stop-color:#EE0008"/>
			<stop  offset="0.8112" style="stop-color:#650D11"/>
		</linearGradient>
		<rect x="912.8" y="1035.9" class="st0" width="196.7" height="39.3"/>
		<linearGradient id="SVGID_2_" gradientUnits="userSpaceOnUse" x1="1021.3474" y1="490.66" x2="949.9631" y2="1183.5066">
			<stop  offset="0.3134" style="stop-color:#EE0008"/>
			<stop  offset="0.8112" style="stop-color:#650D11"/>
		</linearGradient>
		<path class="st1" d="M750.7,682.7H843c45.2,0,88.2,21.6,113.8,58.9c27.6,40.2,47,104.3,53.4,207.7h2.1
			c6.4-103.4,25.7-167.4,53.4-207.7c25.6-37.3,68.5-58.9,113.8-58.9h92.4c43.8,0,81.5-26.1,98.3-63.7c0,0,0,0,0,0
			c11.7-18.2,9.1-34.3,9.1-34.3h-0.2H643.4h-0.2c0,0-2.6,16.2,9.1,34.4C669.2,656.6,706.9,682.7,750.7,682.7z"/>
	</g>
</g>
</svg>
